<?xml version="1.0" standalone="no"?>
<!DOCTYPE svg PUBLIC "-//W3C//DTD SVG 1.1//EN" "http://www.w3.org/Graphics/SVG/1.1/DTD/svg11.dtd" >
<!--
2013-9-30: Created.
-->
<svg>
<metadata>
Created by iconfont
</metadata>
<defs>

<font id="iconfont" horiz-adv-x="1024" >
  <font-face
    font-family="iconfont"
    font-weight="500"
    font-stretch="normal"
    units-per-em="1024"
    ascent="896"
    descent="-128"
  />
    <missing-glyph />
    
    <glyph glyph-name="right" unicode="&#58984;" d="M508.356855 737.034109c-256.330032 0-464.132556-207.792291-464.132556-464.132556 0-256.330032 207.802524-464.132556 464.132556-464.132556 256.340266 0 464.132556 207.802524 464.132556 464.132556C972.489412 529.241818 764.697121 737.034109 508.356855 737.034109zM807.319868 444.426132c0 0-229.999101-136.679332-379.480607-385.937979-73.405275 108.137953-174.20577 201.201883-174.20577 201.201883s-3.458941 79.852413 48.107932 54.913245c0 0 41.241218-17.130967 112.466746-85.839041 208.733778 186.189261 371.948712 254.784766 371.948712 254.784766C826.211007 503.678403 807.319868 444.426132 807.319868 444.426132z"  horiz-adv-x="1024" />

    
    <glyph glyph-name="edit" unicode="&#59170;" d="M128 160l0-160 160 0 472.106667 472.106667-160 160-472.106667-472.106667zM883.413333 595.413333c16.64 16.64 16.64 43.733333 0 60.373333l-99.626667 99.626667c-16.64 16.64-43.733333 16.64-60.373333 0l-78.08-78.08 160-160 78.08 78.08z"  horiz-adv-x="1024" />

    
    <glyph glyph-name="shijian" unicode="&#58993;" d="M778.666667 405.6448 533.333333 405.6448 533.333333 650.978133C533.333333 668.5568 518.954667 682.978133 501.333333 682.978133 483.754667 682.978133 469.333333 668.5568 469.333333 650.978133L469.333333 373.6448C469.333333 356.066133 483.754667 341.6448 501.333333 341.6448L778.666667 341.6448C796.288 341.6448 810.666667 356.066133 810.666667 373.6448 810.666667 391.223467 796.288 405.6448 778.666667 405.6448M512.6656-128C443.630933-128 376.644267-114.432 313.412267-87.722667 252.526933-61.994667 197.7856-25.088 150.638933 21.973333 103.662933 68.864 66.7136 123.648 40.900267 184.661333 14.2336 247.893333 0.6656 314.965333 0.6656 384 0.6656 453.034667 14.2336 520.106667 40.900267 583.296 66.670933 644.181333 103.5776 698.922667 150.638933 746.026667 197.614933 793.045333 252.398933 829.952 313.412267 855.765333 376.6016 882.474667 443.630933 896 512.6656 896 581.6576 896 648.686933 882.474667 711.918933 855.765333 772.7616 829.994667 827.502933 793.088 874.692267 746.069333 921.6256 699.093333 958.574933 644.352 984.388267 583.338667 1011.054933 520.106667 1024.6656 453.034667 1024.6656 384 1024.6656 291.626667 999.7056 201.088 952.644267 122.112 945.5616 110.293333 932.676267 102.954667 918.980267 102.954667 911.940267 102.954667 904.9856 104.874667 898.926933 108.501333 889.924267 113.877333 883.566933 122.410667 881.006933 132.565333 878.404267 142.72 879.982933 153.301333 885.4016 162.304 925.2096 229.034667 946.244267 305.706667 946.244267 384 946.244267 442.581333 934.8096 499.328 912.196267 552.704 890.350933 604.416 859.076267 650.752 819.3536 690.517333 779.5456 730.282667 733.2096 761.557333 681.540267 783.402667 628.036267 806.016 571.246933 817.450667 512.750933 817.450667 454.212267 817.450667 397.4656 806.016 343.9616 783.402667 292.292267 761.557333 245.956267 730.282667 206.148267 690.517333 166.4256 650.752 135.150933 604.416 113.3056 552.704 90.606933 499.242667 79.1296 442.453333 79.1296 383.914667 79.1296 325.461333 90.564267 268.672 113.1776 215.168 134.980267 163.584 166.2976 117.205333 206.062933 77.397333 245.870933 37.674667 292.206933 6.4 343.876267-15.530667 397.380267-38.058667 454.1696-49.536 512.6656-49.536 597.9136-49.536 680.4736-24.789333 751.3856 22.016 757.7856 26.24 765.294933 28.501333 772.974933 28.501333 786.116267 28.501333 798.3616 21.973333 805.6576 10.965333 817.5616-7.082667 812.612267-31.445333 794.6496-43.434667 710.852267-98.730667 613.358933-128 512.6656-128"  horiz-adv-x="1025" />

    
    <glyph glyph-name="svgteam" unicode="&#59036;" d="M285.616393 384.364999c17.033286 5.671523 28.75069 20.814302 28.75069 37.529384 0 16.190981-10.762791 30.716069-27.384284 37.005283-50.426015 22.742245-82.845413 72.662877-82.845413 127.262983 0 62.910852 53.720365 113.505328 107.571755 131.73656 9.602281 28.582229 23.846601 55.27395 42.321165 79.363884 1.684611 2.807685 3.518965 5.708959 5.446908 8.647668-0.786152 0.074872-1.572303 0.131025-2.377173 0.131025-122.059407 0-221.357852-98.643318-221.357852-219.879138 0-54.431645 20.458662-106.823039 57.576252-147.478312l4.286398-4.71691-5.671523-2.919992c-118.3907-60.926755-191.933317-181.507449-191.933317-314.647851l0-69.51827c0-22.105837 18.100207-40.075018 40.355786-40.075018l76.219277 0c0.280768 25.662237 2.882556 44.155519 8.01126 69.836474l-56.191127 0 0 39.738096c0 125.746833 85.671815 235.040635 208.348913 265.812858L285.616393 384.364999zM1256.532436 46.900031l0 69.51827c0.074872 133.15912-73.449028 253.721096-191.858446 314.647851l-5.671523 2.919992 4.286398 4.71691c37.136308 40.655273 57.576252 93.027949 57.576252 147.478312 0 121.254538-99.298444 219.916574-221.357852 219.916574-0.80487 0-1.591021-0.056154-2.395891-0.131025 1.965379-2.994864 3.893323-6.008445 5.746394-9.07818 18.212514-23.67814 32.419398-50.351143 42.002961-78.933372 56.247281-18.942512 115.09635-71.015702 115.09635-131.73656 0-54.637542-32.40068-104.539456-82.564644-127.150675-16.920979-6.401521-27.68377-20.926609-27.68377-37.136308 0-16.715082 11.717404-31.857861 29.143766-37.641691l8.423054-2.002815c122.714534-30.790941 208.405067-140.122178 208.405067-265.869011l0-39.738096-63.753158 0c5.128704-25.568648 7.711774-44.043212 8.01126-69.836474l76.219277 0C1238.413512 6.825013 1256.532436 24.794195 1256.532436 46.900031zM221.339134-128l814.396988 0c22.25558 0 40.355786 17.987899 40.355786 40.093736l0 89.864624c0 182.667958-110.73508 344.65264-282.116146 412.692197l-7.898953 3.144607 6.701007 5.241011c65.044693 50.762937 102.349462 126.645292 102.349462 208.161734 0 146.018316-119.588645 264.802091-266.580291 264.802091s-266.580291-118.783775-266.580291-264.802091c0-81.53516 37.304769-157.398797 102.349462-208.161734l6.701007-5.241011-7.91767-3.144607c-171.381066-68.020838-282.116146-230.024238-282.116146-412.692197l0-89.864624C180.983348-110.012101 199.083554-128 221.339134-128zM427.292156 631.553549c0 110.248414 90.276418 199.944577 201.25483 199.944577s201.25483-89.696163 201.25483-199.944577-90.276418-199.963295-201.25483-199.963295S427.292156 521.286417 427.292156 631.553549zM239.233444-11.387501c0 213.253002 174.656698 386.767909 389.332261 386.767909 214.619409 0 389.219954-173.496189 389.219954-386.767909l0-52.616009L239.214726-64.00351l0 52.616009L239.233444-11.387501z"  horiz-adv-x="1257" />

    
    <glyph glyph-name="weibiaoti40" unicode="&#58937;" d="M1008 384.8 1008 384.8l-160-144 0 0c-8.8-8-20-12.8-32-12.8-26.4 0-48 21.6-48 48 0 14.4 6.4 26.4 16 35.2l0 0 67.2 60L624 371.2l0 0L416 371.2l0 0L172.8 371.2l0 0L48 371.2c-26.4 0-48 21.6-48 48 0 26.4 21.6 48 48 48l304 0 112 0c0 0 0 0 0 0l96 0 0 0 291.2 0L784 528l0 0c-9.6 8.8-16 21.6-16 35.2 0 26.4 21.6 48 48 48 12 0 23.2-4.8 32-12.8l0 0 160-144 0 0c9.6-8.8 16-21.6 16-35.2C1024 405.6 1017.6 393.6 1008 384.8z"  horiz-adv-x="1024" />

    
    <glyph glyph-name="delete" unicode="&#59139;" d="M223.595474 577.715957l24.022113-480.742089c0-54.376445 44.989657-98.456383 100.485599-98.456383l331.963601 0c55.494918 0 100.489692 44.078914 100.489692 98.456383l23.109324 480.742089L223.595474 577.715957zM831.749418 611.818659c0.099261 20.274766 0.158612 21.623483 0.158612 22.981411 0 52.871161-31.298843 81.888032-73.29533 81.888032l-116.892267-0.122797c0 27.751041-27.105335 50.245358-54.855352 50.245358L441.349917 766.810662c-27.744901 0-55.727209-22.494317-55.727209-50.245358l-117.013017 0.122797c-46.387493 0-73.29533-35.359322-73.29533-81.888032 0-1.363044 0.054235-2.706645 0.158612-22.981411l636.281561 0L831.749418 611.818659zM614.168937 451.384713c0 15.32708 12.421914 27.750017 27.744901 27.750017 15.32708 0 27.750017-12.422937 27.750017-27.750017l0-317.882907c0-15.328104-12.422937-27.751041-27.750017-27.751041-15.322987 0-27.744901 12.422937-27.744901 27.751041L614.168937 451.384713 614.168937 451.384713zM485.85862 451.384713c0 15.32708 12.42703 27.750017 27.751041 27.750017 15.32708 0 27.750017-12.422937 27.750017-27.750017l0-317.882907c0-15.328104-12.422937-27.751041-27.750017-27.751041-15.322987 0-27.751041 12.422937-27.751041 27.751041L485.85862 451.384713 485.85862 451.384713zM357.63733 451.384713c0 15.32708 12.422937 27.750017 27.751041 27.750017 15.321964 0 27.750017-12.422937 27.750017-27.750017l0-317.882907c0-15.328104-12.42703-27.751041-27.750017-27.751041-15.328104 0-27.751041 12.422937-27.751041 27.751041L357.63733 451.384713 357.63733 451.384713zM357.63733 451.384713"  horiz-adv-x="1024" />

    
    <glyph glyph-name="right2" unicode="&#59177;" d="M513.670036 766.811686c-212.157981 0-384.145054-171.987073-384.145054-384.145054s171.987073-384.149147 384.145054-384.149147 384.149147 171.991166 384.149147 384.149147S725.826993 766.811686 513.670036 766.811686L513.670036 766.811686zM719.725018 429.210691 569.858756 279.344428l0 0 0.024559-0.020466c-62.076824-62.075801-162.725128-62.075801-224.801952 0l-37.487799 37.488823c-20.689205 20.693298-20.689205 54.241368 0 74.930573 20.693298 20.693298 54.241368 20.693298 74.934666 0l37.468356-37.464263c0.004093-0.007163 0.01228-0.01535 0.020466-0.023536 20.587897-20.587897 54.034661-20.645203 74.712609-0.197498 0.069585 0.072655 0.128937 0.149403 0.198521 0.217964l149.866263 149.870356c20.694321 20.689205 54.241368 20.689205 74.930573 0C740.418316 483.453083 740.418316 449.903989 719.725018 429.210691L719.725018 429.210691zM719.725018 429.210691"  horiz-adv-x="1024" />

    
    <glyph glyph-name="erweima" unicode="&#58947;" d="M199.143 559.715h137.143v137.143h-137.143v-137.143zM893.428 354h68.572v-214.286h-68.572v68.572h-68.572v77.142h-68.572v68.572h68.572v-68.572h68.572v68.572zM687.715 208.285h137.143v-137.143h68.572v-68.572h68.572v-68.572h-137.143v68.572h-68.572v137.143h-68.572v-68.572h-77.142v-68.572h77.142v-68.572h-145.714v420h145.714v-68.572h-77.142v-145.714h77.142v68.572zM62-66h411.428v420h-411.428v-420zM130.572 285.429h274.285v-282.858h-274.285v282.858zM199.143 71.143h137.143v137.143h-137.143v-137.143zM542 834v-411.428h420v411.428h-420zM893.428 491.143h-282.858v274.285h282.858v-274.285zM62 422.572h411.428v411.428h-411.428v-411.428zM130.572 765.428h274.285v-274.285h-274.285v274.285zM824.857 696.857h-137.143v-137.143h137.143v137.143z"  horiz-adv-x="1024" />

    
    <glyph glyph-name="xingxing" unicode="&#58946;" d="M949.12 509.408c-4.864 15.008-17.856 25.952-33.44 28.192l-256.992 37.344-114.944 232.896c-6.976 14.144-21.376 23.104-37.152 23.104-15.776 0-30.176-8.96-37.152-23.104l-114.944-232.896L97.472 537.6c-15.616-2.272-28.576-13.184-33.44-28.192s-0.8-31.456 10.496-42.464l185.984-181.28-43.904-255.968c-2.656-15.552 3.712-31.264 16.48-40.544 12.768-9.28 29.664-10.496 43.648-3.136l229.888 120.864 229.856-120.864c6.048-3.168 12.672-4.768 19.264-4.768 8.576 0 17.152 2.656 24.352 7.904 12.768 9.28 19.136 24.992 16.48 40.544l-43.904 255.968 185.984 181.28C949.92 477.952 953.984 494.4 949.12 509.408z"  horiz-adv-x="1024" />

    
    <glyph glyph-name="icon_update" unicode="&#58886;" d="M160 672l80 96h544l80-96h-704zM640 224v-128h-256v128h-192l298.016 310.592c12.128 12.672 31.904 12.64 43.968 0.064l298.016-310.656h-192zM942.208 666.688l-92.416 138.624c-9.792 14.688-32 26.688-49.536 26.688h-576.512c-17.184 0-39.712-11.968-49.536-26.688l-92.416-138.624c-9.792-14.688-17.792-41.056-17.792-58.752v-608.224c0-35.232 28.544-63.712 63.712-63.712h768.576c34.912 0 63.712 28.512 63.712 63.712v608.224c0 18.016-7.968 44.032-17.792 58.752z"  horiz-adv-x="1024" />

    
    <glyph glyph-name="righttriangle" unicode="&#58949;" d="M389.472386 105.490845c-31.136138-18.067494-56.673767-3.396353-56.750515 32.601512l-1.100054 518.214539c-0.077771 35.994796 25.397437 50.776454 56.610322 32.843012l449.298959-258.137175c31.208792-17.930371 31.271214-47.379077 0.140193-65.445548L389.471362 105.491869 389.472386 105.490845 389.472386 105.490845z"  horiz-adv-x="1024" />

    
    <glyph glyph-name="rili" unicode="&#59278;" d="M47.93344 728.8064h-0.98816v-248.83712h933.248V540.68736c0.04096 1.00352 0.29696 1.9456 0.29696 2.95936V718.99136c0 1.01376-0.256 1.95584-0.29696 2.95936v6.85568h-0.6912c-4.80256 33.50016-33.3312 59.3408-68.16256 59.3408H116.096c-34.82624-0.00512-63.36-25.84064-68.16256-59.3408zM979.5072 39.1936h0.98816V491.0848H47.24224v-60.71296c-0.04096-1.00352-0.29696-1.9456-0.29696-2.95424v-378.40384c0-1.01376 0.256-1.95584 0.29696-2.95424v-6.85568h0.6912c4.80256-33.50016 33.3312-59.3408 68.16256-59.3408h795.24352c34.83136-0.00512 63.36512 25.8304 68.16768 59.33056zM489.54368 249.7792c-4.83328-5.80608-9.02144-9.98912-19.98336-19.65568-6.12352-5.80608-12.5696-11.60704-18.688-17.40288-19.65568-18.37056-23.20896-22.89152-27.71456-38.03136h77.6704v-43.19232H365.4656v18.37056c0 25.13408 6.44096 44.14976 23.5264 62.848 11.92448 13.2096 25.7792 24.81152 38.99904 37.05856 19.01568 17.40288 22.88128 22.23616 22.88128 37.70368v16.75776c0 4.51584 0 20.95104-17.40288 20.62848-11.60704 0-15.79008-6.76352-17.40288-11.60192-0.64512-1.93536-0.96768-4.51072-0.96768-9.344v-31.90784h-47.69792v29.32736c0 17.0752 0.96768 32.22528 14.50496 45.11744 9.02144 8.704 24.81664 16.75776 52.85376 16.75776 26.42944 0 41.25184-8.05888 50.2784-15.47264 2.2528-1.93024 9.02144-7.7312 12.5696-16.4352 2.89792-7.0912 3.8656-14.8224 3.8656-30.61248-0.00512-19.33312 0.64-34.79552-11.9296-50.91328zM654.87872 153.09312c-3.2256-5.16096-8.05888-9.02656-9.67168-10.31168-18.688-15.47264-42.86464-15.15008-50.2784-15.15008-25.45152 0-40.92928 8.05888-49.3056 15.15008-6.44608 5.4784-10.31168 11.60192-13.21984 19.33312-3.8656 11.27936-3.8656 22.56384-3.8656 34.16064v103.45984c0 4.19328 0 8.704 0.32768 12.89216 0.31744 5.15072 1.28512 19.33312 11.60192 31.2576 8.704 10.63936 23.84896 19.01568 53.17632 19.01568 23.20896 0 53.17632-5.4784 63.16544-29.97248 2.90816-6.76352 3.87584-12.24192 3.87584-26.42944v-15.79008h-47.05792v11.92448c0 4.51584 0.64512 19.66592-16.75776 19.66592-19.33824 0-19.01568-16.11776-19.01568-21.59616v-42.21952c6.44608 6.44608 14.50496 14.8224 34.80576 14.8224 27.71456 0 41.57952-13.85472 46.09024-24.81152 2.2528-5.80608 3.2256-9.67168 3.2256-20.95104v-37.38624c-0.00512-12.89728 0.32256-25.78432-7.09632-37.06368z m-41.5744 65.41824c0 4.83328 1.6128 23.53152-17.72032 23.53152-4.83328 0-8.38656-0.65024-11.92448-3.54816-6.44608-5.4784-6.12864-13.85472-6.12864-21.26848v-27.71456c0-5.80608-1.28512-21.91872 18.37056-21.91872 6.12352 0 9.02656 1.6128 11.60704 3.54816 5.79584 4.83328 6.12352 12.89216 6.12352 27.39712-0.00512 6.43584-0.00512 13.2096-0.32768 19.97312zM455.91552 570.04544V656.49152l-18.54464-86.44608h-25.52832l-18.55488 86.44608v-86.44608h-25.35424V690.18624h38.79936l17.87392-88.14592 17.86368 88.14592h39.31136v-120.1408h-25.86624zM550.05696 570.04544l-4.08064 27.40224h-22.29248l-4.25472-27.40224H491.008l24.33536 120.1408h38.79936l24.32512-120.1408h-28.41088z m-14.97088 101.08416l-8.16128-53.43744h16.16384l-8.00256 53.43744zM629.56032 612.24448v-42.19904h-28.42112v42.19904l-28.59008 77.93664h28.59008l14.62784-53.0944 14.63808 53.0944h29.10208l-29.94688-77.93664z"  horiz-adv-x="1024" />

    
    <glyph glyph-name="solid-time" unicode="&#58939;" d="M512 841.712c-252.823 0-457.712-204.847-457.712-457.67 0-252.781 204.93-457.753 457.712-457.753s457.712 204.972 457.712 457.753c0 252.823-204.972 457.67-457.712 457.67zM638.786 192.011l-168.397 150.379v374.492h83.22v-332.881l143.763-122.375-58.588-69.614z"  horiz-adv-x="1024" />

    
    <glyph glyph-name="return" unicode="&#59001;" d="M832 768a192 192 0 0 0 192-192v-256a192 192 0 0 0-192-192H256v-64c0-25.856-15.616-49.28-39.488-59.136a64.213333 64.213333 0 0 0-69.76 13.888l-128 128A63.829333 63.829333 0 0 0 0 192c0 16.384 6.272 32.768 18.752 45.248l128 128a64.106667 64.106667 0 0 0 69.76 13.888A64.042667 64.042667 0 0 0 256 320v-64h576c35.392 0 64 28.608 64 64V576a64 64 0 0 1-64 64H320a64.021333 64.021333 0 0 0 0 128h512z"  horiz-adv-x="1024" />

    
    <glyph glyph-name="jiahao" unicode="&#58884;" d="M828.02 699.482C743.477 783.616 631.108 829.95 511.546 829.95c-119.558 0-231.954-46.333-316.5-130.467-84.578-84.162-131.17-196.112-131.17-315.195 0-119.112 46.592-231.028 131.135-315.189 84.548-84.133 196.946-130.467 316.507-130.467 119.56 0 231.96 46.334 316.474 130.467 84.611 84.19 131.198 196.14 131.169 315.222 0.03 119.086-46.529 231-131.141 315.162z m-92.63-347.167H543.525v-191.863c0-17.683-14.326-31.975-31.98-31.975-17.646 0-31.973 14.292-31.973 31.975V352.315H287.711c-17.648 0-31.972 14.324-31.972 31.972 0 17.653 14.324 31.98 31.972 31.98h191.863v191.86c0 17.649 14.326 31.975 31.973 31.975 17.654 0 31.98-14.326 31.98-31.974v-191.861h191.862c17.682 0 31.973-14.327 31.973-31.98 0-17.648-14.291-31.972-31.973-31.972z m0 0"  horiz-adv-x="1024" />

    
    <glyph glyph-name="biaoqing" unicode="&#58959;" d="M1.892473 890.17388h1018.173881v-1018.188283H1.892473zM1.892473 890.17388l1018.166679-1018.181082M1.892473-128.007202L1020.059152 890.17388M506.842076 833.01453c-246.771109 0-447.530994-200.759885-447.530994-447.538196 0-222.227949 162.836093-407.057824 375.442662-441.64726-137.731205 32.644996-240.534496 156.577875-240.534496 304.139306V385.483536a42.028722 42.028722 0 0 0 42.028722 42.028722h541.173809a42.028722 42.028722 0 0 0 42.028722-42.028722v-137.507954c0-147.561432-102.803291-271.49431-240.534496-304.139307 212.606569 34.582235 375.449863 219.419312 375.449863 441.647261 0.007202 246.771109-200.752683 447.530994-447.523792 447.530994z m-54.473141-378.568169a42.028722 42.028722 0 0 0-42.028723 42.028722c0 36.01536-29.303439 65.326-65.318798 65.326-36.022561 0-65.326-29.303439-65.326001-65.326a42.028722 42.028722 0 0 0-84.064646 0c0 82.379464 67.018384 149.390646 149.390647 149.390646s149.383445-67.018384 149.383444-149.390646a42.035924 42.035924 0 0 0-42.035923-42.028722z m322.244208 0a42.028722 42.028722 0 0 0-42.028722 42.028722c0 36.01536-29.303439 65.326-65.318799 65.326-36.022561 0-65.326-29.303439-65.326-65.326a42.028722 42.028722 0 0 0-84.064646 0c0 82.379464 67.018384 149.390646 149.390646 149.390646s149.383445-67.018384 149.383445-149.390646a42.028722 42.028722 0 0 0-42.035924-42.028722z"  horiz-adv-x="1024" />

    
    <glyph glyph-name="QQ" unicode="&#58897;" d="M135.72096 316.19072c-31.86688-76.7488-37.09952-149.9648-11.43296-163.584 17.63328-9.49248 45.3632 12.032 71.2704 51.44576 10.3424-42.93632 35.64032-81.73568 71.8848-112.9984-38.0672-14.35136-62.87872-37.82144-62.87872-64.34304 0-43.65824 67.25632-78.93504 150.21056-78.93504 74.8032 0 136.832 28.70784 148.26496 66.4064a426.30656 426.30656 0 0 0 17.87904 0c11.43808-37.69856 73.58976-66.4064 148.39296-66.4064 82.944 0 150.21056 35.39456 150.21056 78.93504 0 26.5216-24.81152 49.99168-62.88384 64.34816 36.2496 31.1296 61.66528 70.05696 71.8848 112.99328 25.9072-39.40864 53.51424-60.81536 71.15264-51.45088 25.66144 13.6192 20.55168 86.9632-11.43808 163.58912-25.04704 60.32896-59.1104 104.72448-85.0176 114.58048 0.36864 3.76832 0.60928 7.7824 0.60928 11.55072 0 23.23456-6.31808 44.88192-17.152 62.39744 0.24576 1.33632 0.24576 2.79552 0.24576 4.13696 0 10.7008-2.55488 20.79744-6.8096 29.43488-6.56896 156.7744-106.42432 281.20576-268.07296 281.20576S250.4192 695.0656 243.968 538.28608a67.56864 67.56864 0 0 1-6.8096-29.43488c0-1.3312 0.12288-2.79552 0.12288-4.13184-10.7008-17.51552-17.02912-39.04512-17.02912-62.39744 0-3.8912 0.12288-7.65952 0.4864-11.55584-25.78432-9.85088-59.96544-54.2464-85.0176-114.57536z"  horiz-adv-x="1024" />

    
    <glyph glyph-name="tupian" unicode="&#58895;" d="M926.605312 785.639424H190.816256c-22.576128 0-40.876032-18.304-40.876032-40.8832v-654.014464c0-22.566912 18.299904-40.850432 40.876032-40.850432h735.788032c22.577152 0 40.87808 18.28352 40.87808 40.850432V744.7552c0 22.580224-18.301952 40.884224-40.87808 40.884224z m-81.759232-613.131264h-572.27264V376.871936L395.20256 499.510272l204.388352-204.38528L722.215936 417.77152l122.630144-122.646528v-122.616832z m-81.753088 327.000064c-45.152256 0-81.748992 36.595712-81.748992 81.74592 0 45.167616 36.59776 81.750016 81.748992 81.750016s81.753088-36.583424 81.753088-81.750016c0-45.150208-36.600832-81.74592-81.753088-81.74592z"  horiz-adv-x="1024" />

    
    <glyph glyph-name="ic_error" unicode="&#59612;" d="M512 810.666667C276.48 810.666667 85.333333 619.733333 85.333333 384s191.146667-426.666667 426.666667-426.666667 426.666667 190.933333 426.666667 426.666667S747.52 810.666667 512 810.666667z m42.666667-640h-85.333334v85.333333h85.333334v-85.333333z m0 170.666666h-85.333334V597.333333h85.333334v-256z"  horiz-adv-x="1024" />

    
    <glyph glyph-name="kecheng" unicode="&#58905;" d="M728 831.4H138.5c-22.2 0-40.1-17.9-40.1-40v-814.1c0-22.1 18-40 40.1-40H728c22.2 0 40.1 17.9 40.1 40V791.4c0 22.1-17.9 40-40.1 40zM391.5 425.2l-86.7 77.1c-7.6 6.7-19 6.7-26.6 0l-86.7-77.1v260c0 11 9 20 20 20h160c11 0 20-9 20-20v-260zM886.1 831.4h-14.8c-22.1 0-40-17.9-40-40v-814.1c0-22.1 17.9-40 40-40h14.8c22.1 0 40 17.9 40 40V791.4c0 22.1-17.9 40-40 40z"  horiz-adv-x="1024" />

    
    <glyph glyph-name="shousuo1" unicode="&#58902;" d="M247.4 406.4c-6.4-6.201-8.9-14.4-8.4-22.4-0.5-8.1 2-16.3 8.4-22.5l272.9-268c11.5-11.3 30.2-11.3 41.8 0 11.5 11.3 11.5 29.7 0 40.999l-254 249.5 254.001 249.4c11.5 11.3 11.5 29.8 0 41.1s-30.2 11.3-41.7 0l-273-268.1zM452.9 384c-0.6-8.1 2-16.3 8.3-22.5l272.9-268c11.5-11.3 30.2-11.3 41.8 0 11.5 11.3 11.4 29.7 0 40.999l-254 249.5 254.1 249.3c11.4 11.3 11.5 29.8 0 41.1-11.6 11.3-30.3 11.3-41.8 0l-273-268c-6.3-6.2-8.9-14.4-8.3-22.4z"  horiz-adv-x="1024" />

    
    <glyph glyph-name="jiantou_down" unicode="&#58933;" d="M511.711 224.411l-270.188 270.23c-0.287 0.264-0.573 0.531-0.851 0.809-10.935 10.935-10.935 28.663 0 39.598 10.935 10.935 28.663 10.935 39.598 0 0.278-0.278 0.545-0.564 0.809-0.851l0.021 0.021 230.691-230.69 231.94 231.94c10.935 10.935 28.663 10.935 39.598 0s10.935-28.663 0-39.598l-271.617-271.459z"  horiz-adv-x="1024" />

    
    <glyph glyph-name="menu2" unicode="&#58889;" d="M918.507 452.053H104.64c-37.547 0-68.16-30.72-68.16-68.16 0-37.546 30.72-68.16 68.16-68.16h813.867c37.546 0 68.16 30.72 68.16 68.16s-30.72 68.16-68.16 68.16z m-0.32-306.88H104.32c-37.547 0-68.16-30.72-68.16-68.16 0-37.546 30.72-68.16 68.16-68.16h813.867c37.546 0 68.16 30.72 68.16 68.16 0 37.547-30.614 68.16-68.16 68.16z m1.066 610.667H105.387c-37.547 0-68.16-30.72-68.16-68.16 0-37.547 30.72-68.16 68.16-68.16h813.866c37.547 0 68.16 30.72 68.16 68.16 0 37.547-30.72 68.16-68.16 68.16z"  horiz-adv-x="1024" />

    
    <glyph glyph-name="fenxiang" unicode="&#58916;" d="M972.8 346.0864v-294.7584A128.0768 128.0768 0 0 0 844.8-76.8H179.2a128 128 0 0 0-128 128V716.8c0 70.7328 57.1904 128 127.872 128h202.3168a25.6 25.6 0 0 1 0 51.2H179.072A179.072 179.072 0 0 1 0 716.8v-665.6a179.2 179.2 0 0 1 179.2-179.2h665.6c98.944 0 179.2 80.2816 179.2 179.328V346.0864a25.6 25.6 0 0 1-51.2 0zM960 768c-353.4592 0-640-286.5408-640-640a25.6 25.6 0 0 1 51.2 0c0 325.1968 263.6032 588.8 588.8 588.8a25.6 25.6 0 0 1 0 51.2zM720.1024 833.8432l256-102.4a25.6 25.6 0 0 1 18.9952 47.5136l-256 102.4a25.6 25.6 0 0 1-18.9952-47.5136zM808.8064 547.5328l194.6368 189.312a25.6 25.6 0 1 1-35.6864 36.7104L773.12 584.2432a25.6 25.6 0 1 1 35.6864-36.7104z"  horiz-adv-x="1024" />

    
    <glyph glyph-name="xiaoxi" unicode="&#59045;" d="M884.992 244.416c-8.448 55.104-33.088 216.32-39.424 246.592-1.6 137.728-124.928 225.6-237.504 262.208v10.176c0 49.28-43.008 89.344-95.936 89.344s-95.872-40.128-95.872-89.344v-6.656c-125.184-36.16-245.76-129.92-247.36-266.112-6.336-30.912-27.52-190.592-34.816-245.888-31.424-18.624-59.392-45.376-59.392-111.552 0-31.36 25.344-90.624 121.088-90.624h153.408A164.992 164.992 0 0 1 512-94.72a165.12 165.12 0 0 1 162.944 137.28h153.344c95.808 0 121.152 59.264 121.152 90.624-0.064 73.6-36.672 95.68-64.448 111.232zM512-46.72a117.824 117.824 0 0 0-114.496 89.28H626.56A117.76 117.76 0 0 0 512-46.72z m316.224 137.216H195.712c-67.968 0-72.768 35.904-73.088 42.624 0 47.744 17.024 60.288 44.992 75.392l10.816 5.824 1.6 12.16c11.968 91.072 32.256 240.832 35.968 255.04l0.896 6.4c0 118.272 115.008 199.232 229.056 227.072l18.304 4.48v43.904c0 22.784 21.504 41.344 47.936 41.344s47.936-18.56 47.936-41.344v-46.144l17.408-4.928c101.504-28.608 220.032-104.448 220.032-224.064l0.832-6.144c3.52-13.376 26.944-164.352 40.896-256.384l1.728-11.328 18.688-10.752c25.152-14.08 41.664-23.296 41.664-70.528 0-1.728-0.832-42.624-73.152-42.624z"  horiz-adv-x="1024" />

    
    <glyph glyph-name="more" unicode="&#58880;" d="M89.536 409.6a102.4 102.4 0 1 0 204.8 0 102.4 102.4 0 1 0-204.8 0m320.064-0.064a102.4 102.4 0 1 0 204.8 0 102.4 102.4 0 1 0-204.8 0m320.064 0a102.4 102.4 0 1 0 204.8 0 102.4 102.4 0 1 0-204.8 0"  horiz-adv-x="1024" />

    
    <glyph glyph-name="close-b" unicode="&#58930;" d="M512 896a512 512 0 1 1 512-512 512 512 0 0 1-512 512z m203.52-352.64L556.8 384l156.8-156.8a32 32 0 0 0 0-42.88 32 32 0 0 0-43.52 0L512 338.55999999999995l-158.08-157.44a31.36 31.36 0 0 0-44.8 44.8L465.92 384 308.48 541.44a32 32 0 0 0 0 45.44 30.72 30.72 0 0 0 44.8 0L512 429.44l158.72 158.08a32 32 0 0 0 45.44 0 32 32 0 0 0 0-44.8z"  horiz-adv-x="1024" />

    
    <glyph glyph-name="sousuo" unicode="&#58881;" d="M1004.6-59.8L828.8 130.4c5.8 7.8 11 14.8 16 21.8C917 252 945.2 364 929.4 485.4 894.4 753 631.2 933.6 367.6 872.6 132.2 818.2-24 584.6 16.4 347.4c37-217.6 221.2-378.2 442.4-385.6 68.8-2.2 135 10.6 198.2 38.2 16.4 7.2 30.4 19.2 25.2 37.6C678.8 50 667.4 63 656 69c-7.8 4.2-22.2-1.4-32.6-5.4-65.2-25-131.8-35.6-201.8-27C228 61 54.6 239 86.6 474.8 117.4 702.8 325.2 846.6 552.4 804c166.2-31 303.2-190.4 308.8-359.6 3.6-106.4-27.8-200.4-99-280.6-26.6-30-26.4-42 1.4-71.8l51-54.6 136.2-147.2c9.6-10.4 26.2-11.2 36.6-1.4l15.8 14.6c10.4 9.8 11 26.2 1.4 36.8z"  horiz-adv-x="1024" />

    
    <glyph glyph-name="chuangfeiguLOGO" unicode="&#58890;" d="M438.949942-127.93862H337.427674a101.031229 101.031229 0 0 0-87.589043 50.638374L13.464837 333.637835a101.031229 101.031229 0 0 0 0 100.78571L249.838631 845.361626A101.031229 101.031229 0 0 0 337.427674 896h492.082239a135.035665 135.035665 0 0 0-134.728766-134.728766h-298.919858a67.517833 67.517833 0 0 1-58.372236-33.758916l-178.001558-309.845472a67.517833 67.517833 0 0 1 0-67.149553l178.001558-309.845471a67.517833 67.517833 0 0 1 58.372236-33.758917h178.001558a135.035665 135.035665 0 0 0-134.912905-134.851525zM627.570214 161.712881a47.262483 47.262483 0 0 0 45.298328 33.697537h127.117664a103.670563 103.670563 0 0 1 98.207757 70.893724l33.636156 100.90847h-240.240724a47.262483 47.262483 0 0 0 45.298328 33.697536h83.108314a170.942876 170.942876 0 0 1 162.165557 116.92861l66.474375 199.668645H419.860809a50.699754 50.699754 0 0 1-43.702451-25.411257L212.335544 409.073668a50.638374 50.638374 0 0 1 0-50.699754l163.822814-282.776959a50.392855 50.392855 0 0 1 43.702451-25.042978h245.519391a162.779356 162.779356 0 0 1 154.370317 111.158904h-192.180303z"  horiz-adv-x="1048" />

    
    <glyph glyph-name="shanchu" unicode="&#58885;" d="M254.399 91.298l-0.031 4.787c0-1.632 0.012-3.22 0.03-4.787zM614.19 636.963c-22.117 0-40.047-17.91-40.047-40.047l0.371-502.16c0-22.098 17.93-40.049 40.047-40.049s40.049 17.951 40.049 40.048l-0.351 502.161c0 22.135-17.932 40.047-40.07 40.047z m279.043 118.931l-318.892-0.148-0.178 41.407c0 22.136-17.933 40.048-40.067 40.048a39.868 39.868 0 0 1-20.018-5.364 39.906 39.906 0 0 1-20.031 5.364C471.932 837.2 454 819.289 454 797.153l0.188-41.464-230.116-0.106a40.115 40.115 0 0 1-10.104 1.287c-3.503 0-6.9-0.452-10.137-1.296l-73.067-0.034c-22.116 0-40.048-17.95-40.048-40.047 0-22.136 17.931-40.048 40.048-40.048l43.176 0.02 0.293-617.903h0.06v-42.55c0-44.234 35.862-80.096 80.094-80.096h40.048v-0.303l440.523 0.257v0.046h40.049c43.663 0 79.146 34.95 80.054 78.395l-0.33 583.37c0 22.135-17.93 40.047-40.048 40.047-22.115 0-40.047-17.912-40.047-40.047l0.288-509.324c-1.407-60.315-18.595-71.368-79.994-71.368l41.576-1.022-454.442-0.266 52.398 1.288c-62.715 0-79.305 11.523-80.064 75.309l0.493-76.612h-0.544l-0.313 660.818 236.823 0.11c1.174-0.104 2.36-0.167 3.561-0.167 1.216 0 2.416 0.063 3.604 0.17l32.64 0.015c1.253-0.119 2.521-0.185 3.805-0.185 1.3 0 2.583 0.067 3.852 0.188l354.913 0.164c22.116 0 40.05 17.912 40.05 40.047 0 22.136-17.933 40.048-40.049 40.048zM774.93 80.705l0.037-65.715h-0.46l0.423 65.715zM413.953 636.963c-22.116 0-40.048-17.91-40.048-40.047l0.372-502.16c0-22.098 17.931-40.049 40.049-40.049 22.116 0 40.047 17.951 40.047 40.048l-0.371 502.161c-0.001 22.135-17.933 40.047-40.049 40.047z"  horiz-adv-x="1024" />

    
    <glyph glyph-name="tianjia" unicode="&#58887;" d="M801.171 412.411H544V669.582c0 17.673-14.327 32-32 32s-32-14.327-32-32v-257.171H222.83c-17.673 0-32-14.327-32-32s14.327-32 32-32H480v-257.17c0-17.673 14.327-32 32-32s32 14.327 32 32v257.17h257.171c17.673 0 32 14.327 32 32s-14.327 32-32 32z"  horiz-adv-x="1024" />

    
    <glyph glyph-name="xuanzeanniukuang" unicode="&#58891;" d="M511.7 831.3c-247.4 0-448-200.6-448-448s200.6-448 448-448 448 200.6 448 448-200.6 448-448 448z m-0.2-850.5c-222.6 0-403 180.4-403 403s180.4 403 403 403 403-180.4 403-403-180.5-403-403-403z"  horiz-adv-x="1024" />

    
    <glyph glyph-name="xuanzeanniu" unicode="&#58892;" d="M511.7 831.3c-247.4 0-448-200.6-448-448s200.6-448 448-448 448 200.6 448 448-200.6 448-448 448z m-0.2-850.5c-222.6 0-403 180.4-403 403s180.4 403 403 403 403-180.4 403-403-180.5-403-403-403zM237 382.8a275 275 0 1 1 550 0 275 275 0 1 1-550 0z"  horiz-adv-x="1024" />

    
    <glyph glyph-name="jian" unicode="&#58893;" d="M801.171 348.411H222.83c-17.673 0-32 14.327-32 32s14.327 32 32 32h578.341c17.673 0 32-14.327 32-32s-14.327-32-32-32z"  horiz-adv-x="1024" />

    
    <glyph glyph-name="youjiantou" unicode="&#58896;" d="M302.08 819.2c-15.36 0-30.72-5.12-40.96-15.36-10.24-10.24-15.36-25.6-15.36-40.96s5.12-30.72 15.36-40.96l373.76-353.28-373.76-353.28c-10.24-10.24-15.36-25.6-15.36-40.96 0-15.36 5.12-20.48 15.36-30.72 10.24-10.24 25.6-15.36 40.96-15.36s30.72 5.12 40.96 15.36l419.84 389.12c10.24 10.24 15.36 25.6 15.36 40.96s-5.12 30.72-15.36 40.96L348.16 803.84c-15.36 10.24-30.72 15.36-46.08 15.36z"  horiz-adv-x="1024" />

    
    <glyph glyph-name="zuojiantou" unicode="&#58898;" d="M721.92-71.67999999999995c15.36 0 30.72 5.12 40.96 15.36 10.24 10.24 15.36 25.6 15.36 40.96s-5.12 30.72-15.36 40.96l-373.76 353.28 373.76 353.28c10.24 10.24 15.36 25.6 15.36 40.96s-5.12 20.48-15.36 30.72c-10.24 10.24-25.6 15.36-40.96 15.36-15.36 0-30.72-5.12-40.96-15.36L261.12 414.72c-10.24-10.24-15.36-25.6-15.36-40.96 0-15.36 5.12-30.72 15.36-40.96l414.72-389.12c15.36-10.24 30.72-15.36 46.08-15.36z"  horiz-adv-x="1024" />

    
    <glyph glyph-name="geren" unicode="&#58899;" d="M612.7 322.1H393.2C205.4 322.1 53 165.9 53-26.6v-22.5c0-78.7 152.3-78.8 340.2-78.8h219.5c187.9 0 340.2 2.9 340.2 78.8v22.5c0.1 192.7-152.4 348.7-340.2 348.7zM237.2 628.9c0-146.8 119-265.9 265.8-265.9s265.9 119.1 265.9 265.9S649.8 894.8 503 894.8 237.2 775.7 237.2 628.9z"  horiz-adv-x="1024" />

    
    <glyph glyph-name="kehuqunzu" unicode="&#58900;" d="M575.458 388.488c59.226 23.476 101.286 81.212 101.286 148.69 0 88.23-71.786 160-160.016 160s-160-71.77-160-160c0-67.478 42.045-125.214 101.271-148.69C326.31 361.26 226.997 244.39 226.997 104.749c0-33.957 23.823-45.206 42.963-54.242l1.099-0.451c77.176-27.242 188.792-34.5 242.582-34.5 58.655 0 173.478 9.517 249.736 35.855 28.582 10.963 43.083 28.913 43.083 53.338 0 139.656-99.313 256.527-231.002 283.739zM382.78 401.965c-37.903 35.343-61.74 85.564-61.74 141.478 0 68.472 35.643 128.512 89.283 162.936v0.015c-0.331 0.467-0.813 0.738-1.19 1.13-0.391 0.421-0.632 0.948-1.1 1.325a160.301 160.301 0 0 1-100.14 35.313c-88.23 0-160.015-71.77-160.015-160 0-67.479 42.059-125.214 101.285-148.69C117.46 408.244 18.161 291.372 18.161 151.731c0-24.44 14.502-42.375 43.46-53.488 42.887-14.818 96.105-23.356 134.129-27.995a322.41 322.41 0 0 0-2.41 38.732c0 130.44 77.78 242.643 189.44 292.984z m404.028 33.491c59.227 23.477 101.286 81.212 101.286 148.69 0 88.23-71.785 160-160.015 160-36.94 0-73.005-12.905-101.511-36.321l-4.247-3.479a193.4 193.4 0 0 0 85.94-160.903c0-55.914-23.837-106.135-61.74-141.478 111.66-50.341 189.44-162.545 189.44-292.984 0-13.403-0.92-26.58-2.5-39.545l0.798 0.09c39.138 4.548 95.217 13.207 140.484 28.853 28.581 10.963 43.083 28.913 43.083 53.339 0 139.655-99.313 256.527-231.018 283.738z"  horiz-adv-x="1024" />

    
    <glyph glyph-name="riqi" unicode="&#58906;" d="M166.528-23.936c230.72-1.088 461.504-0.32 692.16-0.384 72.256-0.064 118.464 32.32 132.544 105.28 8.896 204.288 11.264 408.576-1.344 612.8-14.336 51.008-45.76 83.328-99.456 91.584-0.32-18.688-0.576-37.312-0.832-56 34.688-22.848 46.208-54.464 45.696-96.128-1.856-168.128-1.92-336.32-0.256-504.448 0.768-67.456-28.864-94.656-95.36-94.272a46558.454 46558.454 0 0 1-655.04 0c-66.752-0.512-95.808 26.944-95.104 94.272 1.728 168.128 1.6 336.32-0.192 504.448-0.512 41.664 10.944 73.344 45.632 96.128 0.192 18.688 0.448 37.312 0.704 55.936-72.128-15.104-105.152-60.352-105.024-133.056 0.384-180.544-0.704-361.216 0.512-541.696 0.576-86.208 48.64-134.08 135.36-134.464z m278.464 753.024c22.528-1.024 46.08-4.416 67.456 0.64 39.424 9.28 111.424-29.248 111.808 31.168 0.448 53.248-71.424 14.08-102.464 27.52-28.672 0-51.2 0.64-73.728-0.128-21.888-0.896-50.816 3.392-52.416-28.16-1.664-32.448 27.136-30.144 49.344-31.04z m278.976-544.64c44.032 1.536 61.696 11.2 60.928 58.816-0.768 46.464-8.832 74.112-61.44 62.144-46.784 9.344-61.824-9.152-61.824-55.936-0.128-47.232 10.432-66.88 62.336-65.024z m-214.336 2.816c49.152-10.432 65.28 9.6 64.32 59.776-0.832 44.16-10.88 61.44-58.56 61.056-47.296-0.32-67.2-10.624-64.768-62.528 1.984-43.008 9.088-68.8 59.008-58.304z m-211.84-2.624c45.504 1.152 74.944 7.424 61.632 64.704 13.312 45.376-8.832 57.856-54.4 58.496-46.528 0.768-67.904-8.896-65.408-61.696 1.92-43.2 9.664-62.72 58.176-61.504z m426.176 210.752c44.032 1.536 61.632 11.2 60.928 58.816-0.768 46.4-8.832 74.112-61.44 62.08-46.784 9.344-61.76-9.152-61.824-55.936-0.128-47.168 10.432-66.88 62.336-64.96zM513.28 519.04c-51.648 2.304-62.528-17.152-62.72-64.64-0.192-47.36 16.32-58.176 60.8-58.88 49.984-0.832 70.528 14.848 59.968 64.192 10.368 49.536-14.656 57.472-58.048 59.328zM300.992 395.456c42.24 2.368 63.808 8.256 61.952 57.664-1.728 44.16-5.184 76.224-60.032 63.232-45.312 8.512-64.064-6.336-63.104-54.912 0.96-44.992 7.04-69.12 61.184-65.984zM693.76 724.544c1.6-21.952-11.968-54.784 28.032-56.384 40.576-1.664 29.12 30.912 31.168 53.44 1.216 12.224 0.256 24.704 0.256 37.056-0.064 12.288 0.896 24.768-0.256 36.992-1.984 22.656 8.256 54.528-32 53.056-34.56-1.28-26.304-29.568-27.456-50.048-1.28-24.704-1.664-49.536 0.256-74.112z m-421.952-0.448c1.6-22.016-11.584-54.784 28.48-56 40.512-1.28 28.544 31.424 30.784 53.888 1.28 12.224 0.256 24.64 0.256 37.056 0 12.288 0.832 24.704-0.192 36.992-1.856 22.784 7.808 54.528-32.384 52.608-34.432-1.664-25.792-30.016-27.008-50.496-1.408-24.576-1.728-49.472 0.064-74.048z m-105.024 6.4c22.912-3.072 45.504-4.096 45.248 28.224-0.192 31.68-21.376 32.64-45.184 27.776-10.368-0.384-20.8-0.832-31.168-1.216-0.256-18.624-0.512-37.248-0.704-55.936l31.808 1.152z m690.88 56c-23.872 4.864-45.056 3.84-45.056-27.968-0.064-31.936 21.504-32.512 45.12-28.096 10.688-0.32 21.248-0.768 31.872-1.152 0.256 18.688 0.512 37.312 0.832 56-10.944 0.448-21.888 0.832-32.768 1.216z"  horiz-adv-x="1024" />

    
    <glyph glyph-name="guanbi" unicode="&#60266;" d="M548.992 392.256L885.44 728.672a31.968 31.968 0 1 1-45.248 45.248L503.744 437.504 167.328 773.92a31.968 31.968 0 1 1-45.248-45.248l336.416-336.416L122.08 55.84a31.968 31.968 0 1 1 45.248-45.248l336.416 336.416L840.16 10.56a31.968 31.968 0 1 1 45.248 45.248L548.992 392.256z"  horiz-adv-x="1024" />

    
    <glyph glyph-name="bianji" unicode="&#58904;" d="M961.884 754.609c-15.998 15.997-41.935 15.997-57.931 0l-405.51-405.494c-15.998-15.995-15.998-41.93 0-57.928 15.996-15.995 41.932-15.995 57.928 0L961.884 696.68c15.996 15.998 15.996 41.933 0 57.929zM811.66 319.64c-22.415 0-40.589-18.17-40.589-40.587v-202.938c0-22.417-18.172-40.588-40.589-40.588H202.82c-22.418 0-40.59 18.171-40.59 40.588V725.517c0 22.415 18.172 40.588 40.59 40.588h405.893c22.417 0 40.589 18.17 40.589 40.587 0 22.414-18.172 40.587-40.59 40.587H162.232c-44.833 0-81.179-36.343-81.179-81.175v-730.577c0-44.83 36.346-81.177 81.179-81.177h608.84c44.835 0 81.178 36.346 81.178 81.177V279.054c0 22.416-18.171 40.587-40.589 40.587z"  horiz-adv-x="1024" />

    
    <glyph glyph-name="shoucang" unicode="&#58910;" d="M802.191-128a99.466 99.466 0 0 0-45.754 11.439l-223.3 117.37-222.804-117.37A99.466 99.466 0 0 0 167.6-13.117l42.77 248.664L29.84 411.602a99.466 99.466 0 0 0 54.209 167.102l248.664 36.305L447.596 841.294a99.466 99.466 0 0 0 176.054 0l111.402-225.787 248.664-36.305a99.466 99.466 0 0 0 54.21-167.6L857.394 235.547l42.77-248.664A99.466 99.466 0 0 0 803.683-128zM533.136 823.39a24.866 24.866 0 0 1-22.877-14.423L389.906 566.271a36.305 36.305 0 0 0-26.856-18.401L94.492 509.078a25.861 25.861 0 0 1-14.422-44.262l193.958-189.482a36.305 36.305 0 0 0 10.444-31.83L238.718-23.56a25.861 25.861 0 0 1 37.3-27.353l240.21 126.321a36.305 36.305 0 0 0 33.818 0l240.21-126.321a25.861 25.861 0 0 1 37.3 27.353L781.8 243.505a36.305 36.305 0 0 0 10.444 31.829l193.958 189.482a25.861 25.861 0 0 1-14.423 44.262L703.72 547.87a36.305 36.305 0 0 0-27.353 19.893L556.511 808.967a24.866 24.866 0 0 1-23.375 14.423z"  horiz-adv-x="1066" />

    
    <glyph glyph-name="fujian" unicode="&#58911;" d="M135.483 224.777l364.903 364.822c25.478 26.363 56.664 39.545 93.557 39.545 34.32 0 63.416-11.896 87.287-35.767 23.791-23.872 35.767-52.967 35.767-87.287 0-36.812-13.181-67.997-39.545-93.557L420.011 155.092c-4.179-4.179-8.842-6.269-13.824-6.269-6.752 0-16.557 6.43-29.578 19.45-12.94 12.94-19.45 22.826-19.45 29.497 0 5.063 2.09 9.645 6.269 13.824L620.95 469.035c10.448 11.332 15.673 23.631 15.673 37.053 0 12.137-4.019 22.183-11.976 30.141-7.877 7.957-17.924 11.896-30.141 11.896-14.227 0-26.765-4.983-37.615-15.03L192.069 168.273c-26.443-26.363-39.625-56.745-39.625-91.065 0-26.765 8.842-48.949 26.443-66.55 17.522-17.603 39.705-26.363 66.55-26.363 34.32 0 64.622 13.181 90.984 39.545l487.314 487.877c31.828 31.828 47.743 69.685 47.743 113.65 0 44.367-15.271 82.304-45.894 113.65-30.543 31.427-67.997 47.1-112.364 47.1-42.679 0-80.617-16.075-113.65-48.306L219.074 356.672c-4.179-4.26-9.002-6.35-14.468-6.35-6.671 0-16.477 6.43-29.176 19.209-12.78 12.78-19.209 22.505-19.209 29.176 0 5.063 2.09 9.645 6.269 13.824l379.933 380.496c48.144 47.341 105.292 70.972 171.44 70.972 66.55 0 122.813-23.228 168.868-69.685 46.055-46.457 69.123-102.961 69.123-169.511 0-65.345-23.631-122.09-70.972-170.234L393.005-32.665c-41.875-41.875-91.065-62.773-147.569-62.773-49.028 0-90.02 16.477-123.135 49.592-33.034 33.034-49.592 74.106-49.592 123.054 0 57.388 20.977 106.497 62.773 147.569z"  horiz-adv-x="1024" />

    
    <glyph glyph-name="xinlangweibo" unicode="&#58908;" d="M721.99 427.966c-33.469 6.37-17.531 24.695-17.531 24.695s32.671 54.194-6.382 93.248c-48.607 48.607-166.55-6.384-166.55-6.384-44.627-13.55-32.669 6.384-26.302 41.441 0 40.645-14.342 109.968-134.674 68.524-119.536-40.632-222.337-184.875-222.337-184.875-71.723-95.62-62.157-168.937-62.157-168.937 17.529-163.365 191.259-207.993 325.933-218.354 141.855-11.16 333.099 48.605 391.272 172.137 58.18 123.515-47.806 172.122-81.272 178.505zM422.357 122.75c-141.058-6.367-255.007 64.543-255.007 158.587 0 94.03 113.949 168.94 255.007 175.32 141.046 6.368 255.005-51.009 255.005-145.038 0-94.047-113.96-182.488-255.005-188.87zM394.463 395.282C252.61 378.548 268.546 245.467 268.546 245.467s-0.797-41.429 38.259-62.951c82.882-44.624 168.143-17.53 211.175 37.462 43.033 55.77 18.324 191.242-123.517 175.304z m-35.868-186.466c-26.287-3.185-47.811 11.956-47.811 34.261 0 22.32 19.134 45.423 45.423 47.81 30.281 3.2 50.212-14.341 50.212-36.65 0-22.32-21.522-42.236-47.824-45.42z m83.68 70.929c-9.567-6.384-19.918-5.59-24.708 2.387-5.573 7.963-3.185 20.714 5.587 27.096 10.35 7.962 21.51 5.574 26.3-2.4 4.776-7.961 0.797-19.92-7.178-27.083zM791.325 485.33c11.145 0 20.713 8.773 22.306 19.932 0 0.797 0.797 1.591 0.797 2.388 16.734 155.39-127.496 128.305-127.496 128.305-12.753 0-23.116-10.363-23.116-23.118 0-12.75 10.365-23.115 23.116-23.115 103.584 23.115 80.48-81.277 80.48-81.277-0.002-12.751 10.363-23.114 23.913-23.114zM773.782 756.314c-49.404 11.942-101.196 1.97-115.54-1.214-0.797 0-2.405-0.6-3.2-0.6-0.796 0-0.796-0.699-0.796-0.699-14.346-3.995-24.697-17.488-24.697-32.629 0-18.325 15.14-33.452 33.466-33.452 0 0 18.326 2.403 31.079 7.193 11.956 4.776 115.554 3.199 167.346-82.868 27.894-62.952 11.956-105.19 10.363-112.368 0 0-7.178-15.94-7.178-32.674 0-18.325 15.14-31.05 34.275-31.05 15.143 0 28.69-0.755 31.873 27.917h0.797c54.993 196.61-67.74 271.716-157.788 292.444z"  horiz-adv-x="1024" />

    
    <glyph glyph-name="weixin" unicode="&#58909;" d="M691.23 532.944c4.507 0 8.986-0.1 13.443-0.267-28.387 129.986-162.366 228.411-323.384 228.411-181.675 0-328.95-125.291-328.95-279.844 0-90.299 50.286-170.593 128.32-221.762l-32.866-96.942 108.829 59.677c38.45-13.407 80.538-20.818 124.666-20.818 8.507 0 16.938 0.274 25.28 0.815-9.205 24.38-14.192 50.36-14.192 77.331 0.002 139.947 133.802 253.4 298.854 253.4zM494.81 622.75c26.829 0 48.578-21.749 48.578-48.578 0-26.828-21.748-48.577-48.577-48.577s-48.578 21.748-48.578 48.577c0.001 26.83 21.75 48.578 48.578 48.578z m-225.987-97.154c-26.828 0-48.578 21.748-48.578 48.577 0 26.828 21.748 48.578 48.578 48.578s48.577-21.749 48.577-48.578c0-26.828-21.748-48.577-48.577-48.577zM968.964 279.544c0 130.06-124.345 235.492-277.734 235.492S413.498 409.603 413.498 279.544 537.843 44.052 691.23 44.052c32.207 0 63.124 4.664 91.888 13.211l94.96-52.07L850.48 86.6c71.639 42.59 118.484 113.124 118.484 192.944z m-364.506 33.793c-21.48 0-38.893 17.412-38.893 38.892 0 21.48 17.413 38.893 38.893 38.893s38.893-17.412 38.893-38.893c0-21.48-17.413-38.892-38.893-38.892z m180.938 0c-21.48 0-38.893 17.412-38.893 38.892 0 21.48 17.412 38.893 38.893 38.893 21.48 0 38.892-17.412 38.892-38.893 0-21.48-17.413-38.892-38.892-38.892z"  horiz-adv-x="1024" />

    
    <glyph glyph-name="jiantou" unicode="&#58882;" d="M936.996875 384l-499.99218751 350.00156251L437.00468749 583.98984375 336.99921875 583.98984375 336.99921875 183.99609375l100.00546876 0L437.00468749 33.998437490000015 936.996875 384zM186.99453125 583.98984375L186.99453125 183.99609375 287 183.99609375l0 399.99375L186.99453125 583.98984375z m-99.99140625 0L87.003125 183.99609375l49.9921875 0 0 399.99375-49.9921875 0z"  horiz-adv-x="1024" />

    
    <glyph glyph-name="error" unicode="&#58894;" d="M515.41333333 889.40088889c-276.48 0-500.62222222-224.14222222-500.62222222-500.62222222s224.14222222-500.62222222 500.62222222-500.62222222 500.62222222 224.14222222 500.62222222 500.62222222-224.14222222 500.62222222-500.62222222 500.62222222z m225.28-660.82133334c19.56977778-19.56977778 19.56977778-51.2 0-70.76977777-19.56977778-19.56977778-51.2-19.56977778-70.76977778 0L515.41333333 312.32000000000005 361.01688889 157.80977778c-19.56977778-19.56977778-51.2-19.56977778-70.76977778 0-19.56977778 19.56977778-19.56977778 51.2 0 70.76977777l154.51022222 154.51022223L290.13333333 537.6c-19.56977778 19.56977778-19.56977778 51.2 0 70.76977778 19.56977778 19.56977778 51.2 19.56977778 70.76977778 0L515.41333333 453.85955555l154.51022222 154.51022223c19.56977778 19.56977778 51.2 19.56977778 70.76977778 0 19.56977778-19.56977778 19.56977778-51.2 0-70.76977778L586.29688889 383.08977777999996 740.69333333 228.57955555z"  horiz-adv-x="1024" />

    
    <glyph glyph-name="xiazai" unicode="&#59121;" d="M515.109 85.109L195.807 528.772h174.885V890.782H659.73v-362.01h174.884L515.517 85.109zM1023.007 202.208H911.903v-212.005H111.816V202.208H0v-324.99h1023.007z"  horiz-adv-x="1024" />

    
    <glyph glyph-name="tiku" unicode="&#59035;" d="M409.6 179.2h563.2a51.2 51.2 0 0 0 46.336-29.44A127.744 127.744 0 0 1 972.8 51.2c0-39.68 18.0224-75.1104 46.336-98.56A51.2 51.2 0 0 0 972.8-76.8H76.8A76.8 76.8 0 0 0 0 0v102.4A76.8 76.8 0 0 0 76.8 179.2H153.6v-204.8l128 128L409.6-25.6v204.8z m0 332.8h563.2a51.2 51.2 0 0 0 46.336-29.44A127.744 127.744 0 0 1 972.8 384c0-39.68 18.0224-75.1104 46.336-98.56A51.2 51.2 0 0 0 972.8 256H409.6v256z m-256 0v-256H76.8A76.8 76.8 0 0 0 0 332.8V435.2a76.8 76.8 0 0 0 76.8 76.8H153.6zM153.6 588.8H76.8A76.8 76.8 0 0 0 0 665.6v102.4A76.8 76.8 0 0 0 76.8 844.8H972.8a51.2 51.2 0 0 0 46.336-29.44A127.744 127.744 0 0 1 972.8 716.8c0-39.68 18.0224-75.1104 46.336-98.56A51.2 51.2 0 0 0 972.8 588.8H409.6V716.8A76.8 76.8 0 0 1 332.8 793.6h-102.4A76.8 76.8 0 0 1 153.6 716.8V588.8z m204.8 128v-618.8032l-76.8 76.8-76.8-76.8V716.8a25.6 25.6 0 0 0 25.6 25.6h102.4a25.6 25.6 0 0 0 25.6-25.6z"  horiz-adv-x="1024" />

    
    <glyph glyph-name="video" unicode="&#61770;" d="M672.4 768H95.6C42.8 768 0 725.2 0 672.4v-576.8C0 42.8 42.8 0 95.6 0h576.8c52.8 0 95.6 42.8 95.6 95.6V672.4c0 52.8-42.8 95.6-95.6 95.6z m378.8-75.4L832 541.4v-314.8l219.2-151c42.4-29.2 100.8 0.6 100.8 51.6V641c0 50.8-58.2 80.8-100.8 51.6z"  horiz-adv-x="1152" />

    
    <glyph glyph-name="daochu" unicode="&#58901;" d="M1150.15795 768H644.148356c-20.44226 0-40.884521 7.66772-53.674038 23.003159L508.690301 872.787177Q485.687142 895.790336 455.016263 895.790336H76.677197C33.246753 895.790336 0 862.558559 0 819.113139V-49.885106c0-43.430443 33.231777-76.677197 76.677197-76.677197H1150.15795c43.430443 0 76.677197 33.231777 76.677197 76.677197V691.322803c0 43.460395-33.231777 76.677197-76.677197 76.677197zM823.006903 259.369603h-107.348075v-153.354393a51.262899 51.262899 0 0 0-51.113139-51.113139h-102.256231a51.262899 51.262899 0 0 0-51.113139 51.113139V259.369603h-117.561717c-46.006318 0-69.009477 51.113139-38.338599 84.344917l214.696151 230.03159c10.228618 10.213642 25.564058 15.335439 38.338598 15.335439q23.003159 0 38.338599-15.335439l214.651222-230.016614c30.715807-30.685855 7.712648-84.359892-38.29367-84.359893z"  horiz-adv-x="1227" />

    
    <glyph glyph-name="return1" unicode="&#59385;" d="M884.8 500.8C836.4 549.3 772.1 576 704 576H237.3l105.4 105.4c12.5 12.5 12.5 32.8 0 45.3s-32.8 12.5-45.3 0l-160-160c-12.5-12.5-12.5-32.8 0-45.3l160-160c6.2-6.2 14.4-9.4 22.6-9.4s16.4 3.1 22.6 9.4c12.5 12.5 12.5 32.8 0 45.3L237.3 512H704c105.9 0 192-86.1 192-192s-86.1-192-192-192H224c-17.7 0-32-14.3-32-32s14.3-32 32-32h480c68.1 0 132.4 26.7 180.8 75.2S960 251.9 960 320s-26.7 132.4-75.2 180.8z"  horiz-adv-x="1024" />

    
    <glyph glyph-name="home" unicode="&#58992;" d="M999.936 386.56l-449.024 389.12c-9.216 11.264-23.552 18.432-38.912 18.432s-29.696-7.168-38.912-18.432l-449.024-389.12C9.728 377.344 0 361.472 0 343.04c0-26.624 19.968-48.128 46.08-50.688v-0.512h81.92v-317.44c0-28.16 23.04-51.2 51.2-51.2h204.8c28.16 0 51.2 23.04 51.2 51.2v209.92c0 28.16 23.04 51.2 51.2 51.2h51.2c28.16 0 51.2-23.04 51.2-51.2v-209.92c0-28.16 23.04-51.2 51.2-51.2h204.8c28.16 0 51.2 23.04 51.2 51.2v317.44h76.8c28.16 0 51.2 23.04 51.2 51.2 0 18.432-9.728 34.304-24.064 43.52z"  horiz-adv-x="1024" />

    
    <glyph glyph-name="all" unicode="&#58888;" d="M0 815.179292m130.093695 0l195.140544 0q130.093695 0 130.093695-130.093696l0-195.140543q0-130.093695-130.093695-130.093695l-195.140544 0q-130.093695 0-130.093695 130.093695l0 195.140543q0 130.093695 130.093695 130.093696ZM0 327.327934m130.093695 0l195.140544 0q130.093695 0 130.093695-130.093695l0-195.140544q0-130.093695-130.093695-130.093695l-195.140544 0q-130.093695 0-130.093695 130.093695l0 195.140544q0 130.093695 130.093695 130.093695ZM487.851358 327.327934m130.093695 0l195.140543 0q130.093695 0 130.093696-130.093695l0-195.140544q0-130.093695-130.093696-130.093695l-195.140543 0q-130.093695 0-130.093695 130.093695l0 195.140544q0 130.093695 130.093695 130.093695ZM748.025317 895.993509m91.990134-91.990135l114.987668-114.987667q91.990134-91.990134 0-183.980269l-114.987668-114.987668q-91.990134-91.990134-183.980269 0l-114.987667 114.987668q-91.990134 91.990134 0 183.980269l114.987667 114.987667q91.990134 91.990134 183.980269 0Z"  horiz-adv-x="1046" />

    
    <glyph glyph-name="wendang" unicode="&#58907;" d="M768 569.6c-70.4 0-134.4 57.6-134.4 134.4V806.4c0 6.4-6.4 19.2-19.2 19.2h-384c-51.2 0-89.6-38.4-89.6-89.6v-697.6c0-51.2 38.4-89.6 89.6-89.6h556.8c51.2 0 89.6 38.4 89.6 89.6V556.8c0 6.4-6.4 19.2-19.2 19.2H768z m-19.2-467.2H275.2c-6.4 0-19.2 6.4-19.2 19.2v12.8c0 6.4 6.4 19.2 19.2 19.2h467.2c6.4 0 19.2-6.4 19.2-19.2v-12.8c0-12.8-6.4-19.2-12.8-19.2z m0 153.6H275.2c-6.4 0-19.2 6.4-19.2 19.2v12.8c0 6.4 6.4 19.2 19.2 19.2h467.2c6.4 0 19.2-6.4 19.2-19.2v-12.8c0-12.8-6.4-19.2-12.8-19.2z m0 153.6H275.2c-6.4 0-19.2 6.4-19.2 19.2v6.4c0 6.4 6.4 19.2 19.2 19.2h467.2c6.4 0 19.2-6.4 19.2-19.2v-12.8c0-6.4-6.4-12.8-12.8-12.8z m12.8 0M678.4 768v-57.6c0-51.2 38.4-89.6 89.6-89.6h57.6c19.2 0 32 25.6 12.8 38.4l-128 128c-6.4 12.8-32 0-32-19.2z m0 51.2"  horiz-adv-x="1024" />

    
    <glyph glyph-name="Tools" unicode="&#60767;" d="M942.622517 92.397351c-10.172185 20.344371-30.516556 33.907285-54.251656 33.907285h-30.516556l-250.913908 250.913907 20.344371 20.344371c10.172185 10.172185 13.562914 20.344371 13.562914 33.907285s-3.390728 23.735099-13.562914 33.907284c-27.125828 27.125828-50.860927 40.688742-74.596026 50.860928-20.344371 6.781457-37.298013 20.344371-44.07947 40.688741-10.172185 27.125828-23.735099 50.860927-50.860928 74.596027L230.569536 862.092715C206.834437 882.437086 176.317881 896 145.801325 896c-33.907285 0-64.423841-13.562914-84.768212-33.907285l-27.125828-27.125828c-20.344371-20.344371-33.907285-50.860927-33.907285-84.768212 0-30.516556 13.562914-61.033113 33.907285-84.768211l227.178808-227.178808c27.125828-27.125828 50.860927-40.688742 74.596026-50.860928 20.344371-6.781457 37.298013-23.735099 44.07947-44.07947 10.172185-27.125828 23.735099-50.860927 50.860928-77.986755 10.172185-10.172185 20.344371-13.562914 33.907284-13.562914s23.735099 3.390728 33.907285 13.562914l20.344371 20.344371 250.913907-250.913907v-30.516556c0-23.735099 13.562914-44.07947 33.907285-54.251656l145.801325-74.596027c3.390728 0 3.390728-3.390728 6.781456-3.390728s10.172185 3.390728 13.562914 3.390728l44.079471 44.079471c6.781457 6.781457 6.781457 13.562914 3.390728 20.344371l-74.596026 152.582781zM457.748344 221.245033c-16.953642 3.390728-33.907285 10.172185-47.470198 23.735099-30.516556 30.516556-50.860927 61.033113-61.033113 91.549669 0 3.390728-3.390728 6.781457-3.390728 10.172186-3.390728 3.390728-6.781457 6.781457-13.562914 6.781457s-10.172185 0-13.562914-6.781457l-23.7351-27.125828c-23.735099-20.344371-54.251656-33.907285-91.549668-33.907285-118.675497 0-203.443709-81.377483-203.443709-196.662251 0-6.781457 0-13.562914 3.390728-20.344371v-3.390729c0-6.781457 3.390728-10.172185 10.172186-13.562914 3.390728-3.390728 10.172185-3.390728 16.953642 0L169.536424 136.476821c37.298013-20.344371 64.423841-57.642384 67.814569-98.331126L88.15894-53.403974c-3.390728-3.390728-6.781457-6.781457-6.781457-13.562913s3.390728-10.172185 6.781457-13.562914c37.298013-27.125828 77.986755-40.688742 122.066226-40.688742 50.860927 0 105.112583 23.735099 142.410596 67.814569 47.470199 50.860927 67.81457 98.331126 64.423841 149.192053 0 30.516556 13.562914 61.033113 37.298013 88.158941l10.172185 10.172185c3.390728 3.390728 6.781457 10.172185 3.390729 16.953643 0 6.781457-6.781457 10.172185-10.172186 10.172185z m-247.523178-325.509934zM562.860927 546.754967c30.516556-10.172185 61.033113-30.516556 88.158941-57.642384 13.562914-13.562914 20.344371-27.125828 23.735099-44.07947 0-6.781457 6.781457-10.172185 10.172185-13.562914h6.781457c3.390728 0 10.172185 3.390728 13.562914 6.781457l61.033113 64.423841c16.953642-3.390728 33.907285-6.781457 50.860927-6.781457 61.033113 0 115.284768 23.735099 152.582781 61.033112 30.516556 33.907285 50.860927 84.768212 47.470199 142.410596 0 6.781457-3.390728 10.172185-10.172185 13.562914-6.781457 3.390728-10.172185 3.390728-16.953643 0l-118.675496-71.205298c-37.298013 20.344371-64.423841 57.642384-67.81457 98.331126l132.238411 81.377484c3.390728 3.390728 6.781457 6.781457 6.781457 13.562913s-3.390728 10.172185-6.781457 13.562914C901.933775 879.046358 857.854305 896 806.993377 896s-105.112583-23.735099-142.410596-64.423841c-47.470199-50.860927-67.81457-98.331126-67.814569-149.192053 0-30.516556-13.562914-61.033113-37.298013-84.768212l-13.562914-13.562914c0-6.781457-3.390728-13.562914-3.390729-16.953642s3.390728-10.172185 3.390729-13.562914c6.781457-3.390728 10.172185-3.390728 16.953642-6.781457z"  horiz-adv-x="1026" />

    
    <glyph glyph-name="rightDouble" unicode="&#58922;" d="M465.454545 896h111.709091l409.6-512L577.163636-128H465.454545v93.090909h74.472728l335.127272 418.909091L539.927273 802.909091H465.454545zM93.090909 896h111.709091l409.6-512L204.8-128H93.090909v93.090909h74.472727l335.127273 418.909091L167.563636 802.909091H93.090909z"  horiz-adv-x="1024" />

    
    <glyph glyph-name="leftDouble" unicode="&#58923;" d="M588.334545-128H472.901818L63.301818 384 472.901818 896h115.432727v-93.090909h-70.74909l-335.127273-418.909091 335.127273-418.909091h70.74909v-93.090909zM960.698182-128H845.265455L435.665455 384 845.265455 896h115.432727v-93.090909h-70.749091l-335.127273-418.909091 335.127273-418.909091h70.749091v-93.090909z"  horiz-adv-x="1024" />

    
    <glyph glyph-name="zhankai" unicode="&#58924;" d="M896 896H128a128 128 0 0 1-128-128v-768a128 128 0 0 1 128-128h768a128 128 0 0 1 128 128V768a128 128 0 0 1-128 128z m-64-576H576v-256H448V320H192V448h256V704h128v-256h256z"  horiz-adv-x="1024" />

    
    <glyph glyph-name="shousuo" unicode="&#58926;" d="M896 896H128C57.6 896 0 838.4 0 768v-768c0-70.4 57.6-128 128-128h768c70.4 0 128 57.6 128 128V768c0 70.4-57.6 128-128 128z m-64-576H192V448h640v-128z"  horiz-adv-x="1024" />

    


  </font>
</defs>
</svg>
